<svg height="480pt" viewBox="0 0 480 480" width="480pt" xmlns="http://www.w3.org/2000/svg"><path d="m448 64v16c8.835938 0 16 7.164062 16 16v240h-448v-240c0-8.835938 7.164062-16 16-16v-16c-17.671875 0-32 14.328125-32 32v272c0 17.671875 14.328125 32 32 32h157.246094l-19.199219 64h-18.046875v16h176v-16h-18.046875l-19.199219-64h157.246094c17.671875 0 32-14.328125 32-32v-272c0-17.671875-14.328125-32-32-32zm-154.753906 400h-106.492188l19.199219-64h68.09375zm170.753906-96c0 8.835938-7.164062 16-16 16h-416c-8.835938 0-16-7.164062-16-16v-16h448zm0 0"/><path d="m64 32c0-8.835938 7.164062-16 16-16h256v32h-64c-2.121094 0-4.15625.84375-5.65625 2.34375l-160 160c-3.121094 3.125-3.121094 8.1875 0 11.3125l96 96c3.125 3.121094 8.1875 3.121094 11.3125 0l160-160c1.5-1.5 2.34375-3.535156 2.34375-5.65625v-56h40v224h16v-232c0-.167969-.089844-.320312-.097656-.488281-.042969-.707031-.183594-1.40625-.414063-2.078125-.089843-.257813-.152343-.496094-.265625-.746094-.386718-.871094-.929687-1.664062-1.597656-2.34375l-80-80c-.675781-.671875-1.46875-1.214844-2.335938-1.601562-.257812-.117188-.511718-.183594-.800781-.277344-.652343-.222656-1.328125-.355469-2.015625-.402344-.128906.0351562-.289062-.0625-.472656-.0625h-264c-17.671875 0-32 14.328125-32 32v288h16zm296 116.6875-152 152-84.6875-84.6875 152-152h61.488281c2.636719 12.734375 11.285157 23.394531 23.199219 28.609375zm44.6875-68.6875h-28.6875c-13.253906 0-24-10.746094-24-24v-28.6875zm0 0"/><path d="m80 32h16v16h-16zm0 0"/><path d="m112 32h16v16h-16zm0 0"/><path d="m144 32h16v16h-16zm0 0"/><path d="m344 96c0 8.835938-7.164062 16-16 16s-16-7.164062-16-16 7.164062-16 16-16 16 7.164062 16 16zm0 0"/><path d="m154.34375 213.652344 11.3125-11.3125 55.996094 55.996094-11.3125 11.3125zm0 0"/><path d="m178.34375 189.65625 11.3125-11.316406 55.996094 56-11.3125 11.3125zm0 0"/><path d="m303.839844 126.398438c-.632813-3.164063-3.109375-5.636719-6.273438-6.269532l-40-8c-2.613281-.515625-5.3125.300782-7.199218 2.183594l-24 24c-1.878907 1.886719-2.699219 4.585938-2.183594 7.199219l8 40c.632812 3.164062 3.109375 5.636719 6.273437 6.273437l40 8c.503907.125 1.023438.195313 1.542969.214844 2.121094 0 4.15625-.84375 5.65625-2.34375l24-24c1.882812-1.886719 2.699219-4.585938 2.183594-7.199219zm-26.472656 56.890624-30.566407-6.089843-6.113281-30.566407 17.945312-17.953124 30.566407 6.121093 6.113281 30.566407zm0 0"/><path d="m80 80h80v16h-80zm0 0"/><path d="m80 112h80v16h-80zm0 0"/><path d="m80 144h48v16h-48zm0 0"/><path d="m384 240h16v16h-16zm0 0"/><path d="m320 272h80v16h-80zm0 0"/><path d="m320 304h80v16h-80zm0 0"/><path d="m320 240h48v16h-48zm0 0"/><path d="m80 272h56v16h-56zm0 0"/><path d="m80 304h80v16h-80zm0 0"/></svg>