<svg xmlns="http://www.w3.org/2000/svg" viewBox="0 0 99.92 112.27"><defs><style>.cls-1{fill:#fff;}</style></defs><g id="Layer_2" data-name="Layer 2"><g id="Layer_1-2" data-name="Layer 1"><path class="cls-1" d="M81.65,72.55A24.41,24.41,0,0,1,61.89,82.63H50.5a9.09,9.09,0,0,1-8.55-6,28.56,28.56,0,0,1-4.6-1.82,31,31,0,0,1-8.59-6.35A36.67,36.67,0,0,0,0,104.27v2.29a5.71,5.71,0,0,0,5.7,5.71H94.22a5.71,5.71,0,0,0,5.7-5.71v-2.29A36.66,36.66,0,0,0,81.65,72.55Z"/><path class="cls-1" d="M22.7,56.71a6.49,6.49,0,0,0,5.69-3.37l.09.24,0,.07c2.6,6.83,7.64,12.55,14.3,15.05a9.09,9.09,0,0,1,7.7-4.26H61.89A6.48,6.48,0,0,0,65,63.61c1.55-.87,2.95-3.08,3.67-4.25a32.64,32.64,0,0,0,2.85-6,6.62,6.62,0,0,0,1.8,2.07V58.2A11.46,11.46,0,0,1,61.89,69.64H50.5a3.9,3.9,0,0,0,0,7.8H61.89A19.26,19.26,0,0,0,81.12,58.2V55.41a6.49,6.49,0,0,0,2.6-5.2V34A6.47,6.47,0,0,0,81,28.68a31.16,31.16,0,0,0-62.12,0A6.47,6.47,0,0,0,16.2,34V50.21A6.5,6.5,0,0,0,22.7,56.71ZM50,7.8a23.39,23.39,0,0,1,23.25,21,6.66,6.66,0,0,0-1.82,2.26C67.71,21.51,59.5,14.83,50,14.83c-9.74,0-17.82,6.91-21.41,16.23l0,0a6.53,6.53,0,0,0-1.82-2.25A23.39,23.39,0,0,1,50,7.8Z"/></g></g></svg>