<svg xmlns="http://www.w3.org/2000/svg" viewBox="0 0 125.09 86.02"><defs><style>.cls-1{fill:#fff;}</style></defs><g id="Layer_2" data-name="Layer 2"><g id="Layer_1-2" data-name="Layer 1"><path class="cls-1" d="M109.46,0H31.31a7.82,7.82,0,1,0,0,15.63h78.15a7.82,7.82,0,1,0,0-15.63Z"/><path class="cls-1" d="M15.67,7.82A7.81,7.81,0,0,0,2.35,2.31,7.8,7.8,0,0,0,0,7.82,7.72,7.72,0,0,0,0,9.34a7.41,7.41,0,0,0,.43,1.48,8.26,8.26,0,0,0,.75,1.33A6.89,6.89,0,0,0,3.37,14.3a6.61,6.61,0,0,0,1.32.75,6.74,6.74,0,0,0,1.65.58,6.44,6.44,0,0,0,1.52,0,7.81,7.81,0,0,0,5.51-2.27,6.74,6.74,0,0,0,1-1.21,9,9,0,0,0,.74-1.33,7.22,7.22,0,0,0,.58-1.48A6.44,6.44,0,0,0,15.67,7.82Z"/><path class="cls-1" d="M15.67,43a6.53,6.53,0,0,0,0-1.53A6.2,6.2,0,0,0,15.09,40a7.87,7.87,0,0,0-.74-1.37,5.25,5.25,0,0,0-1-1.17A7.82,7.82,0,0,0,0,43a7.89,7.89,0,0,0,1.29,4.33,7.65,7.65,0,0,0,1,1.18,5.75,5.75,0,0,0,1.17,1,6.69,6.69,0,0,0,1.33.75,7.05,7.05,0,0,0,1.49.43,6.48,6.48,0,0,0,1.52.15,6.44,6.44,0,0,0,1.52,0,6.05,6.05,0,0,0,1.45-.43,6.73,6.73,0,0,0,1.37-.74,5.75,5.75,0,0,0,1.17-1,5.8,5.8,0,0,0,1-1.17,6.19,6.19,0,0,0,.74-1.33,6.41,6.41,0,0,0,.58-1.64A5.53,5.53,0,0,0,15.67,43Z"/><path class="cls-1" d="M15.67,78.16a6.53,6.53,0,0,0,0-1.53,6.69,6.69,0,0,0-.58-1.48,9,9,0,0,0-.74-1.33,5.8,5.8,0,0,0-1-1.17,7.82,7.82,0,0,0-11,0,5.49,5.49,0,0,0-1,1.17,9,9,0,0,0-.74,1.33A6.29,6.29,0,0,0,.2,76.63,7.1,7.1,0,0,0,0,78.16a7.82,7.82,0,0,0,2.31,5.51,5.75,5.75,0,0,0,1.17,1,6.69,6.69,0,0,0,1.33.75,7.05,7.05,0,0,0,1.49.43A6.48,6.48,0,0,0,7.86,86a6.44,6.44,0,0,0,1.52,0,6.05,6.05,0,0,0,1.45-.43,6.73,6.73,0,0,0,1.37-.74,5.75,5.75,0,0,0,1.17-1,5.8,5.8,0,0,0,1-1.17,6.19,6.19,0,0,0,.74-1.33,6.41,6.41,0,0,0,.58-1.64A5.53,5.53,0,0,0,15.67,78.16Z"/><path class="cls-1" d="M117.28,35.17h-86a7.82,7.82,0,1,0,0,15.63h86a7.82,7.82,0,0,0,0-15.63Z"/><path class="cls-1" d="M82.11,70.34H31.31a7.82,7.82,0,1,0,0,15.63h50.8a7.82,7.82,0,0,0,0-15.63Z"/></g></g></svg>