<svg xmlns="http://www.w3.org/2000/svg" viewBox="0 0 125.05 124.19"><defs><style>.cls-1{fill:#fff;}</style></defs><g id="Layer_2" data-name="Layer 2"><g id="Layer_1-2" data-name="Layer 1"><path class="cls-1" d="M29.93,67.57a5.57,5.57,0,1,0,5.57,5.56A5.56,5.56,0,0,0,29.93,67.57Zm0,7.46a1.9,1.9,0,1,1,1.9-1.9A1.9,1.9,0,0,1,29.93,75Z"/><path class="cls-1" d="M80.29,103a1.84,1.84,0,0,0-1.75-1.27H67.64L64.27,91.32a1.83,1.83,0,0,0-3.49,0l-3.37,10.37H46.51A1.83,1.83,0,0,0,45.43,105l8.82,6.41-3.37,10.37a1.83,1.83,0,0,0,2.82,2l8.82-6.41,8.82,6.41a1.84,1.84,0,0,0,2.83-2L70.8,111.42,79.62,105A1.85,1.85,0,0,0,80.29,103Zm-12.73,6.27a1.84,1.84,0,0,0-.66,2.06l2,6.26-5.33-3.87a1.85,1.85,0,0,0-2.15,0l-5.33,3.87,2-6.26a1.84,1.84,0,0,0-.66-2.06l-5.33-3.87h6.58a1.84,1.84,0,0,0,1.75-1.27l2-6.26,2,6.26a1.84,1.84,0,0,0,1.75,1.27h6.58Z"/><path class="cls-1" d="M125,103a1.84,1.84,0,0,0-1.75-1.27h-10.9l-3.37-10.37a1.83,1.83,0,0,0-3.49,0l-3.37,10.37H91.18A1.84,1.84,0,0,0,90.1,105l8.82,6.41-3.37,10.37a1.84,1.84,0,0,0,2.83,2l8.82-6.41,8.82,6.41a1.83,1.83,0,0,0,2.82-2l-3.37-10.37,8.82-6.41A1.82,1.82,0,0,0,125,103Zm-12.72,6.27a1.83,1.83,0,0,0-.67,2.06l2,6.26-5.32-3.87a1.83,1.83,0,0,0-2.16,0l-5.33,3.87,2-6.26a1.84,1.84,0,0,0-.66-2.06l-5.33-3.87h6.59a1.82,1.82,0,0,0,1.74-1.27l2-6.26,2,6.26a1.84,1.84,0,0,0,1.75,1.27h6.59Z"/><path class="cls-1" d="M35.61,103a1.82,1.82,0,0,0-1.74-1.27H23L19.6,91.32a1.83,1.83,0,0,0-3.49,0l-3.37,10.37H1.84A1.84,1.84,0,0,0,.09,103,1.82,1.82,0,0,0,.76,105l8.82,6.41L6.21,121.79a1.83,1.83,0,0,0,2.82,2l8.82-6.41,8.82,6.41a1.84,1.84,0,0,0,2.83-2l-3.37-10.37L35,105A1.83,1.83,0,0,0,35.61,103Zm-12.72,6.27a1.86,1.86,0,0,0-.67,2.06l2,6.26-5.33-3.87a1.86,1.86,0,0,0-2.16,0l-5.33,3.87,2-6.26a1.83,1.83,0,0,0-.67-2.06l-5.33-3.87h6.59a1.84,1.84,0,0,0,1.75-1.27l2-6.26,2,6.26a1.82,1.82,0,0,0,1.74,1.27h6.59Z"/><path class="cls-1" d="M110.19,45.76A8.32,8.32,0,0,0,105,31H75.46a33.72,33.72,0,0,0,2.59-9.29C79.45,11.83,77.33,6.6,75.3,4A9.8,9.8,0,0,0,68.62,0a3.91,3.91,0,0,0-4.34,3.74c-.34,3.53-1.6,13.22-3.4,16.82-4.62,9.25-15.65,14.77-19.06,16.29a6.79,6.79,0,0,0-4.43-1.64H22.47a6.82,6.82,0,0,0-6.81,6.81v37.3a6.82,6.82,0,0,0,6.81,6.81H37.39a6.83,6.83,0,0,0,5.07-2.26,17.38,17.38,0,0,0,9.38,2.58h48A8.31,8.31,0,0,0,106,72.67a8.3,8.3,0,0,0,2.59-13,8.31,8.31,0,0,0,1.56-14ZM37.39,82.49H22.47a3.15,3.15,0,0,1-3.14-3.14V42.05a3.15,3.15,0,0,1,3.14-3.14H37.39a3.13,3.13,0,0,1,2.24.94V80.78a1.73,1.73,0,0,0,.12.64A3.16,3.16,0,0,1,37.39,82.49Zm59.88-34.9H105a4.65,4.65,0,0,1,0,9.29H97.27a1.84,1.84,0,0,0,0,3.67h5.12a4.65,4.65,0,1,1,0,9.3H95.87a1.84,1.84,0,1,0,0,3.67H99.8a4.65,4.65,0,1,1,0,9.29h-48a13.58,13.58,0,0,1-7.75-2.22,7.24,7.24,0,0,0,.11-1.24V42.05A6.68,6.68,0,0,0,43.88,40c4.3-2,15.31-7.81,20.29-17.76,2.48-5,3.72-17.64,3.78-18.18V3.88A.19.19,0,0,1,68,3.72a.18.18,0,0,1,.15-.05,6.17,6.17,0,0,1,4.2,2.51c1.61,2.09,3.26,6.39,2,15-1,7.28-3.5,10.46-3.52,10.48a1.85,1.85,0,0,0,1.42,3H105a4.65,4.65,0,0,1,0,9.29H97.27a1.84,1.84,0,0,0,0,3.67Z"/></g></g></svg>