<svg xmlns="http://www.w3.org/2000/svg" viewBox="0 0 36.92 30"><defs><style>.cls-1{fill:#fff;}</style></defs><g id="Layer_2" data-name="Layer 2"><g id="Layer_1-2" data-name="Layer 1"><path class="cls-1" d="M36.92,3.55a16,16,0,0,1-4.36,1.2A7.52,7.52,0,0,0,35.89.56a15.09,15.09,0,0,1-4.8,1.84A7.56,7.56,0,0,0,18,7.57a8.12,8.12,0,0,0,.17,1.73A21.45,21.45,0,0,1,2.57,1.38,7.56,7.56,0,0,0,4.9,11.5a7.5,7.5,0,0,1-3.42-.94v.09a7.61,7.61,0,0,0,6.06,7.44,7.9,7.9,0,0,1-2,.24,6.83,6.83,0,0,1-1.44-.12,7.65,7.65,0,0,0,7.08,5.27,15.26,15.26,0,0,1-9.39,3.23A13.54,13.54,0,0,1,0,26.6,21.25,21.25,0,0,0,11.61,30C25.54,30,33.16,18.46,33.16,8.46c0-.33,0-.66,0-1A15.08,15.08,0,0,0,36.92,3.55Z"/></g></g></svg>